<?xml version="1.0" encoding="UTF-8"?>
<svg id="Layer_1" xmlns="http://www.w3.org/2000/svg" xmlns:xlink="http://www.w3.org/1999/xlink" version="1.1" viewBox="0 0 256 256">
  <!-- Generator: Adobe Illustrator 29.3.0, SVG Export Plug-In . SVG Version: 2.1.0 Build 146)  -->
  <defs>
    <style>
      .st0 {
        fill: #ffce69;
      }
    </style>
  </defs>
  <path class="st0" d="M148,93h-23.7v79.4h24.5c34.9,0,42.9-26.5,42.9-39.7,0-21.5-13.7-39.7-43.7-39.7Z"/>
  <path class="st0" d="M128,0C57.3,0,0,57.3,0,128s57.3,128,128,128,128-57.3,128-128S198.7,0,128,0ZM86.3,127.5v58.7h-15.4v-107.1h15.4v48.4ZM78.6,66.9c-5.6,0-10.1-4.6-10.1-10.1s4.5-10.1,10.1-10.1,10.1,4.6,10.1,10.1-4.5,10.1-10.1,10.1ZM150.7,186.3h-41.8v-107.2h41.6c39.6,0,57,28.3,57,53.6s-21.5,53.6-56.8,53.6Z"/>
</svg>