<?xml version="1.0" encoding="UTF-8"?>
<svg id="Layer_1" data-name="Layer 1" xmlns="http://www.w3.org/2000/svg" viewBox="0 0 481.91 342.93">
  <defs>
    <style>
      .cls-1 {
        fill: #f7d179;
      }
    </style>
  </defs>
  <path class="cls-1" d="M60.75,342.93h365.11c35.45,0,56.06-20.46,56.06-60.28V60.12c0-39.82-20.77-60.12-60.9-60.12H56.06C20.61,0,0,20.3,0,60.12v222.53c0,39.82,20.77,60.28,60.75,60.28ZM60.12,316.54c-21.55,0-33.73-11.87-33.73-34.04V60.12c0-21.86,12.18-33.73,33.73-33.73h361.67c21.55,0,33.57,11.87,33.57,33.89v222.37c0,22.02-12.03,33.89-33.57,33.89H60.12ZM240.8,222.22c12.49,0,24.21-4.68,35.45-14.83L466.3,36.39l-18.12-18.11-187.39,168.65c-6.56,5.93-13.12,8.75-19.99,8.75s-13.27-2.81-19.83-8.75L33.42,18.27l-18.11,18.11,190.21,171c11.24,10.15,22.8,14.83,35.29,14.83ZM36.54,319.51l145.39-145.39-18.12-17.96L18.43,301.24l18.11,18.27ZM445.53,319.66l17.96-18.27-145.39-145.23-18.11,17.96,145.54,145.54Z"/>
</svg>