<?xml version="1.0" encoding="UTF-8"?>
<svg id="Flat" xmlns="http://www.w3.org/2000/svg" version="1.1" viewBox="0 0 256 256">
  <!-- Generator: Adobe Illustrator 29.3.0, SVG Export Plug-In . SVG Version: 2.1.0 Build 146)  -->
  <defs>
    <style>
      .st0 {
        fill: #ffce69;
      }
    </style>
  </defs>
  <path class="st0" d="M168,31c0-4.4,3.6-8,8-8h0c21.4,0,41.2,11.5,51.9,30,2.2,3.8.9,8.7-2.9,10.9s-8.7.9-10.9-2.9h0c-7.9-13.6-22.4-22-38.1-22-4.4,0-8-3.6-8-8ZM85.7,233.4c-12.6-8.7-23.1-20.1-30.7-33.4-2.2-3.8-7.1-5.1-10.9-2.9s-5.1,7.1-2.9,10.9h0c8.8,15.3,20.9,28.5,35.5,38.6,3.6,2.5,8.6,1.6,11.1-2,2.5-3.6,1.6-8.6-2-11.1,0,0,0,0,0,0h0ZM229,170.8c-12.6,46.9-60.9,74.8-107.8,62.2-22.5-6-41.7-20.8-53.4-41L29.8,126.2c-7.7-13.4-3.2-30.5,10.2-38.2,3.6-2.1,7.6-3.3,11.8-3.7l-7.4-12.7c-7.7-13.4-3.1-30.5,10.3-38.3,10.5-6.1,23.7-4.7,32.8,3.5,8.1-13.2,25.3-17.3,38.5-9.2,4,2.4,7.3,5.8,9.6,9.9l17.3,30c8.8-12.7,26.2-15.9,39-7.1,3.4,2.4,6.3,5.4,8.3,9l20,34.6c11.7,20.2,14.9,44.2,8.8,66.8h0ZM206.3,112l-20-34.6c-3.3-5.7-10.7-7.7-16.4-4.4s-7.7,10.7-4.4,16.4l10,17.3c.1.2.3.5.4.7,0,.2.1.4.2.5,0,0,0,.1,0,.2,0,.2.1.4.2.7,0,0,0,0,0,0,0,.2,0,.5.1.7,0,0,0,0,0,0,0,.2,0,.4,0,.7,0,0,0,0,0,.1,0,.2,0,.4,0,.6,0,0,0,.1,0,.2,0,.2,0,.4,0,.6,0,0,0,.1,0,.2,0,.2,0,.5-.1.7,0,0,0,0,0,0,0,0,0,0,0,0,0,.2-.1.4-.2.7,0,0,0,.1,0,.2,0,.2-.1.4-.2.5,0,0,0,0,0,.1,0,.2-.2.4-.3.6,0,0,0,0,0,0-.1.2-.3.4-.4.6h0c-.2.2-.3.4-.5.6h0c-.2.2-.4.4-.5.5,0,0,0,0,0,0-.2.1-.3.3-.5.4-.2.2-.4.3-.7.4-15.3,8.8-20.6,28.4-11.7,43.7,2.2,3.8.9,8.7-2.9,10.9s-8.7.9-10.9-2.9c-11.7-20.3-7.1-46.1,11-61l-6.3-11h0s-30-52-30-52c-3.3-5.7-10.7-7.7-16.4-4.4-5.7,3.3-7.7,10.7-4.4,16.4l26,45c2.2,3.8.9,8.7-2.9,10.9-3.8,2.2-8.7.9-10.9-2.9l-26-45h0s-8-13.9-8-13.9c-3.3-5.7-10.7-7.7-16.4-4.4-5.7,3.3-7.7,10.6-4.4,16.4l20,34.6h0s18,31.2,18,31.2c2.2,3.8.9,8.7-2.9,10.9-.3.2-.6.3-.9.5,0,0-.2,0-.3.1-.2,0-.4.2-.7.2,0,0-.2,0-.3,0-.3,0-.6.1-.8.2,0,0,0,0,0,0-.3,0-.6,0-.9,0,0,0,0,0,0,0,0,0-.1,0-.2,0-.2,0-.5,0-.7,0,0,0-.2,0-.3,0-.3,0-.6,0-.9-.2,0,0,0,0,0,0-.3,0-.6-.2-.9-.3,0,0-.1,0-.2,0-.2,0-.4-.2-.6-.3,0,0-.2,0-.2-.1-.3-.2-.5-.3-.8-.5h0c-.3-.2-.5-.4-.7-.6,0,0-.1-.1-.2-.2-.2-.2-.3-.4-.5-.6,0,0-.1-.1-.2-.2-.2-.3-.4-.5-.6-.8l-18-31.2c-3.3-5.7-10.7-7.7-16.4-4.4s-7.7,10.7-4.4,16.4l38,65.8c19.9,34.4,63.9,46.2,98.4,26.4,34.4-19.9,46.2-63.9,26.4-98.4h0Z"/>
</svg>